<svg xmlns="http://www.w3.org/2000/svg" xmlns:rdkit="http://www.rdkit.org/xml" xmlns:xlink="http://www.w3.org/1999/xlink" version="1.1" baseProfile="full" xml:space="preserve" width="150px" height="150px" viewBox="0 0 150 150">
<!-- END OF HEADER -->
<rect style="opacity:1.0;fill:#FFFFFF;stroke:none" width="150.0" height="150.0" x="0.0" y="0.0"> </rect>
<ellipse cx="67.9" cy="58.5" rx="14.9" ry="14.9" class="atom-1" style="fill:#9999E5;fill-rule:evenodd;stroke:#9999E5;stroke-width:1.0px;stroke-linecap:butt;stroke-linejoin:miter;stroke-opacity:1"/>
<path class="bond-0 atom-0 atom-1" d="M 14.4,95.2 L 63.0,52.9" style="fill:none;fill-rule:evenodd;stroke:#E5E5E5;stroke-width:4.0px;stroke-linecap:butt;stroke-linejoin:miter;stroke-opacity:1"/>
<path class="bond-0 atom-0 atom-1" d="M 24.1,106.4 L 72.8,64.1" style="fill:none;fill-rule:evenodd;stroke:#E5E5E5;stroke-width:4.0px;stroke-linecap:butt;stroke-linejoin:miter;stroke-opacity:1;stroke-dasharray:6,0,6"/>
<path class="bond-1 atom-1 atom-2" d="M 70.3,51.4 L 133.2,73.1" style="fill:none;fill-rule:evenodd;stroke:#E5E5E5;stroke-width:4.0px;stroke-linecap:butt;stroke-linejoin:miter;stroke-opacity:1"/>
<path class="bond-1 atom-1 atom-2" d="M 65.5,65.5 L 128.3,87.2" style="fill:none;fill-rule:evenodd;stroke:#E5E5E5;stroke-width:4.0px;stroke-linecap:butt;stroke-linejoin:miter;stroke-opacity:1;stroke-dasharray:6,0,6"/>
<path class="atom-0" d="M 7.8 104.9 L 10.9 101.7 L 6.8 100.9 L 7.4 98.8 L 11.2 100.7 L 10.7 96.6 L 12.9 96.5 L 12.3 100.7 L 16.1 98.9 L 16.8 100.9 L 12.6 101.7 L 15.6 104.9 L 13.8 106.2 L 11.7 102.2 L 9.6 106.2 L 7.8 104.9 " fill="#191919"/>
<path class="atom-2" d="M 134.2 80.3 L 137.3 77.2 L 133.2 76.4 L 133.8 74.3 L 137.6 76.2 L 137.1 72.0 L 139.3 72.0 L 138.7 76.1 L 142.5 74.3 L 143.2 76.4 L 139.0 77.1 L 142.0 80.3 L 140.2 81.6 L 138.1 77.7 L 136.0 81.6 L 134.2 80.3 " fill="#191919"/>
</svg>