<svg xmlns="http://www.w3.org/2000/svg" xmlns:rdkit="http://www.rdkit.org/xml" xmlns:xlink="http://www.w3.org/1999/xlink" version="1.1" baseProfile="full" xml:space="preserve" width="150px" height="150px" viewBox="0 0 150 150">
<!-- END OF HEADER -->
<rect style="opacity:1.0;fill:#FFFFFF;stroke:none" width="150.0" height="150.0" x="0.0" y="0.0"> </rect>
<ellipse cx="88.8" cy="80.8" rx="14.6" ry="14.6" class="atom-0" style="fill:#9999E5;fill-rule:evenodd;stroke:#9999E5;stroke-width:1.0px;stroke-linecap:butt;stroke-linejoin:miter;stroke-opacity:1"/>
<path class="bond-0 atom-0 atom-1" d="M 95.1,84.5 L 65.8,135.2" style="fill:none;fill-rule:evenodd;stroke:#E5E5E5;stroke-width:3.9px;stroke-linecap:butt;stroke-linejoin:miter;stroke-opacity:1"/>
<path class="bond-0 atom-0 atom-1" d="M 82.4,77.1 L 53.1,127.9" style="fill:none;fill-rule:evenodd;stroke:#E5E5E5;stroke-width:3.9px;stroke-linecap:butt;stroke-linejoin:miter;stroke-opacity:1;stroke-dasharray:6,0,6"/>
<path class="bond-1 atom-2 atom-0" d="M 59.3,15.1 L 95.1,77.1" style="fill:none;fill-rule:evenodd;stroke:#E5E5E5;stroke-width:3.9px;stroke-linecap:butt;stroke-linejoin:miter;stroke-opacity:1"/>
<path class="bond-1 atom-2 atom-0" d="M 46.6,22.4 L 82.4,84.5" style="fill:none;fill-rule:evenodd;stroke:#E5E5E5;stroke-width:3.9px;stroke-linecap:butt;stroke-linejoin:miter;stroke-opacity:1;stroke-dasharray:6,0,6"/>
<path class="atom-1" d="M 48.2 141.9 L 51.3 138.8 L 47.2 138.0 L 47.8 135.9 L 51.6 137.8 L 51.0 133.7 L 53.2 133.7 L 52.6 137.8 L 56.4 136.0 L 57.0 138.0 L 52.9 138.8 L 55.9 141.9 L 54.1 143.2 L 52.1 139.3 L 50.0 143.2 L 48.2 141.9 " fill="#191919"/>
<path class="atom-2" d="M 48.2 15.1 L 51.3 11.9 L 47.2 11.1 L 47.8 9.0 L 51.6 10.9 L 51.0 6.8 L 53.2 6.8 L 52.6 10.9 L 56.4 9.1 L 57.0 11.1 L 52.9 11.9 L 55.9 15.0 L 54.1 16.3 L 52.1 12.4 L 50.0 16.3 L 48.2 15.1 " fill="#191919"/>
</svg>