<svg xmlns="http://www.w3.org/2000/svg" xmlns:rdkit="http://www.rdkit.org/xml" xmlns:xlink="http://www.w3.org/1999/xlink" version="1.1" baseProfile="full" xml:space="preserve" width="150px" height="150px" viewBox="0 0 150 150">
<!-- END OF HEADER -->
<rect style="opacity:1.0;fill:#FFFFFF;stroke:none" width="150.0" height="150.0" x="0.0" y="0.0"> </rect>
<ellipse cx="45.9" cy="78.1" rx="7.7" ry="7.7" class="atom-1" style="fill:#E5E533;fill-rule:evenodd;stroke:#E5E533;stroke-width:1.0px;stroke-linecap:butt;stroke-linejoin:miter;stroke-opacity:1"/>
<ellipse cx="75.0" cy="52.8" rx="7.7" ry="7.7" class="atom-3" style="fill:#9999E5;fill-rule:evenodd;stroke:#9999E5;stroke-width:1.0px;stroke-linecap:butt;stroke-linejoin:miter;stroke-opacity:1"/>
<ellipse cx="111.5" cy="65.4" rx="7.7" ry="7.7" class="atom-4" style="fill:#CCCCCC;fill-rule:evenodd;stroke:#CCCCCC;stroke-width:1.0px;stroke-linecap:butt;stroke-linejoin:miter;stroke-opacity:1"/>
<path class="bond-0 atom-0 atom-1" d="M 48.1,109.9 L 42.1,78.9" style="fill:none;fill-rule:evenodd;stroke:#E5E5E5;stroke-width:2.1px;stroke-linecap:butt;stroke-linejoin:miter;stroke-opacity:1"/>
<path class="bond-0 atom-0 atom-1" d="M 55.7,108.4 L 49.7,77.4" style="fill:none;fill-rule:evenodd;stroke:#E5E5E5;stroke-width:2.1px;stroke-linecap:butt;stroke-linejoin:miter;stroke-opacity:1;stroke-dasharray:6,0,6"/>
<path class="bond-1 atom-1 atom-2" d="M 44.6,81.8 L 10.2,69.9" style="fill:none;fill-rule:evenodd;stroke:#E5E5E5;stroke-width:2.1px;stroke-linecap:butt;stroke-linejoin:miter;stroke-opacity:1"/>
<path class="bond-1 atom-1 atom-2" d="M 47.1,74.5 L 12.7,62.6" style="fill:none;fill-rule:evenodd;stroke:#E5E5E5;stroke-width:2.1px;stroke-linecap:butt;stroke-linejoin:miter;stroke-opacity:1;stroke-dasharray:6,0,6"/>
<path class="bond-2 atom-1 atom-3" d="M 45.9,78.1 L 75.0,52.8" style="fill:none;fill-rule:evenodd;stroke:#000000;stroke-width:2.0px;stroke-linecap:butt;stroke-linejoin:miter;stroke-opacity:1"/>
<path class="bond-3 atom-3 atom-4" d="M 75.0,52.8 L 90.5,58.2" style="fill:none;fill-rule:evenodd;stroke:#000000;stroke-width:2.0px;stroke-linecap:butt;stroke-linejoin:miter;stroke-opacity:1"/>
<path class="bond-3 atom-3 atom-4" d="M 90.5,58.2 L 106.1,63.5" style="fill:none;fill-rule:evenodd;stroke:#0000FF;stroke-width:2.0px;stroke-linecap:butt;stroke-linejoin:miter;stroke-opacity:1"/>
<path class="bond-4 atom-4 atom-5" d="M 112.8,72.1 L 117.5,96.4" style="fill:none;fill-rule:evenodd;stroke:#E5E5E5;stroke-width:2.1px;stroke-linecap:butt;stroke-linejoin:miter;stroke-opacity:1"/>
<path class="bond-5 atom-6 atom-4" d="M 139.8,40.8 L 116.9,60.7" style="fill:none;fill-rule:evenodd;stroke:#E5E5E5;stroke-width:2.1px;stroke-linecap:butt;stroke-linejoin:miter;stroke-opacity:1"/>
<path class="atom-0" d="M 51.2 114.8 L 52.8 113.2 L 50.6 112.7 L 51.0 111.6 L 52.9 112.6 L 52.7 110.5 L 53.8 110.5 L 53.5 112.6 L 55.5 111.7 L 55.8 112.7 L 53.7 113.1 L 55.2 114.8 L 54.3 115.5 L 53.2 113.4 L 52.1 115.5 L 51.2 114.8 " fill="#191919"/>
<path class="atom-2" d="M 7.3 64.4 L 8.9 62.7 L 6.8 62.3 L 7.1 61.2 L 9.1 62.2 L 8.8 60.0 L 10.0 60.0 L 9.7 62.2 L 11.6 61.2 L 12.0 62.3 L 9.8 62.7 L 11.4 64.3 L 10.4 65.0 L 9.4 63.0 L 8.3 65.0 L 7.3 64.4 " fill="#191919"/>
<path class="atom-4" d="M 109.1 59.9 L 112.6 65.7 Q 113.0 66.3, 113.6 67.3 Q 114.1 68.4, 114.2 68.4 L 114.2 59.9 L 115.6 59.9 L 115.6 70.9 L 114.1 70.9 L 110.3 64.5 Q 109.8 63.8, 109.4 62.9 Q 108.9 62.1, 108.8 61.8 L 108.8 70.9 L 107.3 70.9 L 107.3 59.9 L 109.1 59.9 " fill="#0000FF"/>
<path class="atom-5" d="M 116.8 102.1 L 118.4 100.4 L 116.2 100.0 L 116.6 98.9 L 118.5 99.9 L 118.2 97.7 L 119.4 97.7 L 119.1 99.9 L 121.1 98.9 L 121.4 100.0 L 119.3 100.4 L 120.8 102.0 L 119.9 102.7 L 118.8 100.7 L 117.7 102.7 L 116.8 102.1 " fill="#191919"/>
<path class="atom-6" d="M 138.5 38.9 L 140.1 37.2 L 138.0 36.8 L 138.3 35.7 L 140.3 36.7 L 140.0 34.6 L 141.2 34.5 L 140.9 36.7 L 142.8 35.8 L 143.2 36.8 L 141.0 37.2 L 142.6 38.9 L 141.6 39.5 L 140.6 37.5 L 139.5 39.5 L 138.5 38.9 " fill="#191919"/>
</svg>